<svg width="24" height="24" viewBox="0 0 24 24" fill="none" xmlns="http://www.w3.org/2000/svg">
<path fill-rule="evenodd" clip-rule="evenodd" d="M5.07692 7.07969C5.07692 4.27425 7.2581 2 9.94872 2C12.6393 2 14.8205 4.27425 14.8205 7.07969C14.8205 9.88512 12.6393 12.1594 9.94872 12.1594C7.2581 12.1594 5.07692 9.88512 5.07692 7.07969ZM9.94872 3.60411C8.10777 3.60411 6.61539 5.16018 6.61539 7.07969C6.61539 8.99919 8.10777 10.5553 9.94872 10.5553C11.7897 10.5553 13.2821 8.99919 13.2821 7.07969C13.2821 5.16018 11.7897 3.60411 9.94872 3.60411ZM19.1795 8.41644C19.6043 8.41644 19.9487 8.77554 19.9487 9.2185V10.5553H21.2308C21.6556 10.5553 22 10.9144 22 11.3573C22 11.8003 21.6556 12.1594 21.2308 12.1594H19.9487V13.4961C19.9487 13.9391 19.6043 14.2982 19.1795 14.2982C18.7547 14.2982 18.4103 13.9391 18.4103 13.4961V12.1594H17.1282C16.7034 12.1594 16.359 11.8003 16.359 11.3573C16.359 10.9144 16.7034 10.5553 17.1282 10.5553H18.4103V9.2185C18.4103 8.77554 18.7547 8.41644 19.1795 8.41644ZM4.41369 16.409C3.88882 16.6044 3.53846 17.1228 3.53846 17.7039V19.1107C3.53846 19.8925 4.20253 20.493 4.94476 20.3824L5.92365 20.2366C8.59348 19.8389 11.304 19.8389 13.9738 20.2366L14.9527 20.3824C15.6949 20.493 16.359 19.8925 16.359 19.1107V17.7039C16.359 17.1228 16.0086 16.6044 15.4838 16.409C11.9044 15.0761 7.99299 15.0761 4.41369 16.409ZM3.89625 14.8983C7.81017 13.4408 12.0873 13.4408 16.0012 14.8983C17.1384 15.3218 17.8974 16.4449 17.8974 17.7039V19.1107C17.8974 20.8687 16.4042 22.219 14.7351 21.9704L13.7562 21.8246C11.2307 21.4484 8.66673 21.4484 6.14122 21.8246L5.16233 21.9704C3.49327 22.219 2 20.8687 2 19.1107V17.7039C2 16.4449 2.75908 15.3218 3.89625 14.8983Z" fill="#B8B8B8"/>
</svg>
