<svg width="27" height="27" viewBox="0 0 27 27" fill="none" xmlns="http://www.w3.org/2000/svg">
<path fill-rule="evenodd" clip-rule="evenodd" d="M13.5 2.85173C10.0201 2.85173 7.19915 5.60234 7.19915 8.99539V11.4042C7.19915 12.2248 6.92759 12.9563 6.60419 13.588C6.37758 14.0307 6.09379 14.4792 5.8402 14.8799C5.74487 15.0306 5.65381 15.1745 5.57166 15.3088C5.30141 15.7507 5.14591 16.2669 5.14591 16.8211C5.14591 18.2556 6.19227 19.4562 7.60857 19.6477C9.46283 19.8984 11.7386 20.1443 13.5 20.1443C15.2614 20.1443 17.5372 19.8984 19.3914 19.6477C20.8077 19.4562 21.8541 18.2556 21.8541 16.8211C21.8541 16.2669 21.6986 15.7507 21.4283 15.3088C21.3462 15.1745 21.2551 15.0306 21.1598 14.8799C20.9062 14.4792 20.6224 14.0307 20.3958 13.5881C20.0724 12.9563 19.8009 12.2248 19.8009 11.4042V8.99539C19.8009 5.60234 16.9799 2.85173 13.5 2.85173ZM5.42824 8.99539C5.42824 4.64869 9.04209 1.125 13.5 1.125C17.9579 1.125 21.5718 4.6487 21.5718 8.99539V11.4042C21.5718 11.8503 21.7188 12.306 21.9803 12.8169C22.1693 13.1861 22.3862 13.5286 22.6227 13.9022C22.7279 14.0684 22.837 14.2408 22.9493 14.4244C23.3786 15.1263 23.625 15.947 23.625 16.8211C23.625 19.077 21.9673 21.0427 19.6347 21.3581C17.766 21.6107 15.3898 21.871 13.5 21.871C11.6102 21.871 9.23398 21.6107 7.36534 21.3581C5.03271 21.0427 3.375 19.077 3.375 16.8211C3.375 15.947 3.62139 15.1263 4.05068 14.4244C4.16298 14.2408 4.27211 14.0684 4.37734 13.9022C4.61385 13.5286 4.83069 13.1861 5.01971 12.8168C5.28123 12.306 5.42824 11.8503 5.42824 11.4042V8.99539Z" fill="black"/>
<path fill-rule="evenodd" clip-rule="evenodd" d="M10.4432 22.9502C10.8504 22.6862 11.4001 22.7941 11.6708 23.1912C12.0654 23.7699 12.7376 24.1483 13.5 24.1483C14.2624 24.1483 14.9346 23.7699 15.3292 23.1912C15.6 22.7941 16.1496 22.6862 16.5568 22.9502C16.964 23.2142 17.0746 23.7502 16.8039 24.1472C16.095 25.1868 14.8801 25.875 13.5 25.875C12.1199 25.875 10.905 25.1868 10.1961 24.1472C9.92536 23.7502 10.036 23.2142 10.4432 22.9502Z" fill="black"/>
</svg>
