<svg width="26" height="26" viewBox="0 0 26 26" fill="none" xmlns="http://www.w3.org/2000/svg">
<path fill-rule="evenodd" clip-rule="evenodd" d="M4.3335 7.39847C4.3335 4.509 6.71168 2.16663 9.64532 2.16663H16.355C19.2886 2.16663 21.6668 4.509 21.6668 7.39847V21.9026C21.6668 23.4276 19.954 24.3487 18.6516 23.524L13.7561 20.4243C13.2956 20.1327 12.7047 20.1327 12.2443 20.4243L7.34874 23.524C6.04635 24.3487 4.3335 23.4276 4.3335 21.9026V7.39847ZM9.64532 3.81879C7.6381 3.81879 6.01092 5.42147 6.01092 7.39847V21.9026C6.01092 22.1205 6.25561 22.2521 6.44167 22.1342L11.3372 19.0345C12.3502 18.3931 13.6501 18.3931 14.6631 19.0345L19.5587 22.1342C19.7447 22.2521 19.9894 22.1205 19.9894 21.9026V7.39847C19.9894 5.42147 18.3622 3.81879 16.355 3.81879H9.64532ZM8.80661 9.05063C8.80661 8.5944 9.18212 8.22455 9.64532 8.22455H16.355C16.8182 8.22455 17.1937 8.5944 17.1937 9.05063C17.1937 9.50687 16.8182 9.87671 16.355 9.87671H9.64532C9.18212 9.87671 8.80661 9.50687 8.80661 9.05063Z" fill="#B8B8B8"/>
</svg>
