<svg width="34" height="34" viewBox="0 0 34 34" fill="none" xmlns="http://www.w3.org/2000/svg">
<path fill-rule="evenodd" clip-rule="evenodd" d="M5.66675 9.67502C5.66675 5.89648 8.77668 2.83337 12.613 2.83337H21.3872C25.2235 2.83337 28.3334 5.89648 28.3334 9.67502V28.642C28.3334 30.6362 26.0935 31.8406 24.3904 30.7623L17.9886 26.7088C17.3864 26.3275 16.6137 26.3275 16.0116 26.7088L9.60976 30.7623C7.90663 31.8406 5.66675 30.6362 5.66675 28.642V9.67502ZM12.613 4.99389C9.98815 4.99389 7.8603 7.0897 7.8603 9.67502V28.642C7.8603 28.9269 8.18028 29.0989 8.42359 28.9449L14.8254 24.8914C16.1501 24.0526 17.85 24.0526 19.1747 24.8914L25.5766 28.9449C25.8199 29.0989 26.1399 28.9269 26.1399 28.642V9.67502C26.1399 7.0897 24.012 4.99389 21.3872 4.99389H12.613ZM11.5162 11.8355C11.5162 11.2389 12.0073 10.7553 12.613 10.7553H21.3872C21.9929 10.7553 22.484 11.2389 22.484 11.8355C22.484 12.4321 21.9929 12.9158 21.3872 12.9158H12.613C12.0073 12.9158 11.5162 12.4321 11.5162 11.8355Z" fill="black"/>
</svg>
