<svg width="40" height="40" viewBox="0 0 40 40" fill="none" xmlns="http://www.w3.org/2000/svg">
<path fill-rule="evenodd" clip-rule="evenodd" d="M5 9.62961C5 8.91368 5.57563 8.33331 6.28571 8.33331H33.7143C34.4244 8.33331 35 8.91368 35 9.62961C35 10.3455 34.4244 10.9259 33.7143 10.9259H6.28571C5.57563 10.9259 5 10.3455 5 9.62961ZM5 20C5 19.2841 5.57563 18.7037 6.28571 18.7037H33.7143C34.4244 18.7037 35 19.2841 35 20C35 20.7159 34.4244 21.2963 33.7143 21.2963H6.28571C5.57563 21.2963 5 20.7159 5 20ZM5 30.3703C5 29.6544 5.57563 29.0741 6.28571 29.0741H33.7143C34.4244 29.0741 35 29.6544 35 30.3703C35 31.0863 34.4244 31.6666 33.7143 31.6666H6.28571C5.57563 31.6666 5 31.0863 5 30.3703Z" fill="black"/>
</svg>
