<svg width="30" height="29" viewBox="0 0 30 29" fill="none" xmlns="http://www.w3.org/2000/svg">
<g clip-path="url(#clip0_3641_6793)">
<path d="M10.1027 4.1373C9.67742 5.79867 9.5606 7.52085 9.77233 9.21455C10.1278 12.0582 11.3911 14.6708 13.3857 16.6653C15.3803 18.6599 17.9928 19.9232 20.8365 20.2787C22.5302 20.4904 24.2524 20.3736 25.9137 19.9484C25.3811 20.513 24.7959 21.0295 24.1654 21.4895C22.6496 22.5954 20.9179 23.341 19.1129 23.6689C17.3082 23.9968 15.4828 23.8977 13.7838 23.3855C12.0852 22.8734 10.5581 21.9622 9.32361 20.7275L9.32352 20.7274C8.08882 19.4929 7.1776 17.9659 6.66551 16.2672C6.1533 14.5682 6.0542 12.7428 6.38208 10.9381C6.71 9.13312 7.45559 7.40147 8.56154 5.88558C9.02151 5.25511 9.53803 4.66991 10.1027 4.1373Z" stroke="#3DABF7" stroke-width="2"/>
</g>
<defs>
<clipPath id="clip0_3641_6793">
<rect width="29.1022" height="29" fill="white"/>
</clipPath>
</defs>
</svg>
