<svg width="24" height="24" viewBox="0 0 24 24" fill="none" xmlns="http://www.w3.org/2000/svg">
<path fill-rule="evenodd" clip-rule="evenodd" d="M12 6.55556C8.39784 6.55556 5.26311 8.57694 3.64985 11.5596C3.50133 11.8342 3.50133 12.1657 3.64984 12.4403C5.26308 15.423 8.39785 17.4444 12 17.4444C15.6022 17.4444 18.7369 15.4231 20.3501 12.4404C20.4987 12.1658 20.4987 11.8343 20.3502 11.5597C18.7369 8.577 15.6021 6.55556 12 6.55556ZM2.30006 10.8132C4.17279 7.35082 7.81417 5 12 5C16.1858 5 19.8273 7.3509 21.7 10.8133C22.1 11.553 22.1 12.4472 21.6999 13.1868C19.8272 16.6492 16.1858 19 12 19C7.81418 19 4.17275 16.6491 2.30004 13.1867C1.89998 12.447 1.89999 11.5529 2.30006 10.8132ZM12 9.66667C10.7255 9.66667 9.69231 10.7113 9.69231 12C9.69231 13.2887 10.7255 14.3333 12 14.3333C13.2745 14.3333 14.3077 13.2887 14.3077 12C14.3077 10.7113 13.2745 9.66667 12 9.66667ZM8.15385 12C8.15385 9.85223 9.87583 8.11111 12 8.11111C14.1242 8.11111 15.8462 9.85223 15.8462 12C15.8462 14.1478 14.1242 15.8889 12 15.8889C9.87583 15.8889 8.15385 14.1478 8.15385 12Z" fill="#B8B8B8"/>
</svg>
