<svg width="34" height="34" viewBox="0 0 34 34" fill="none" xmlns="http://www.w3.org/2000/svg">
<path fill-rule="evenodd" clip-rule="evenodd" d="M18.6756 5.82722C17.2839 7.15245 16.4792 8.983 16.0276 10.8137C15.4606 13.1117 15.4966 15.2306 15.5247 15.8682C15.5608 16.6874 14.7087 17.4767 13.774 17.0378C13.0897 16.7165 11.5925 15.7556 11.0169 13.5424C9.08307 15.1716 7.8603 17.5999 7.8603 20.2317C7.8603 25.0259 11.9144 28.9797 17.0001 28.9797C22.0858 28.9797 26.1399 25.0259 26.1399 20.2317C26.1398 16.6998 24.5031 14.5623 22.6328 12.3604C22.5178 12.225 22.4013 12.0889 22.2839 11.9516C20.8319 10.2549 19.2404 8.39514 18.6756 5.82722ZM18.7797 3.01521C19.6582 2.49196 20.6342 3.17828 20.6591 4.04933C20.7362 6.75341 22.214 8.48902 24.053 10.6487C24.1369 10.7473 24.2215 10.8467 24.3068 10.9471C26.2267 13.2075 28.3334 15.8673 28.3334 20.2317C28.3334 26.308 23.2214 31.1666 17.0001 31.1666C10.7788 31.1666 5.66675 26.308 5.66675 20.2317C5.66675 16.2742 7.8569 12.724 11.1065 10.8038C11.9823 10.2863 12.9539 10.9658 12.982 11.8354C13.0067 12.5995 13.1639 13.1917 13.376 13.6483C13.447 12.6778 13.5967 11.5104 13.8975 10.2913C14.5315 7.72168 15.8835 4.74029 18.7797 3.01521Z" fill="black"/>
</svg>
