<svg width="26" height="26" viewBox="0 0 26 26" fill="none" xmlns="http://www.w3.org/2000/svg">
<path fill-rule="evenodd" clip-rule="evenodd" d="M20.8537 6.32512C18.9175 4.26241 15.7957 4.26241 13.8595 6.32512C13.3923 6.82285 12.6078 6.82285 12.1406 6.32512C10.2045 4.26241 7.08262 4.26241 5.14648 6.32512C3.18901 8.41054 3.18901 11.8074 5.14648 13.8929L11.3553 20.5075C12.2494 21.4601 13.7508 21.4601 14.6449 20.5075L20.8537 13.8929C22.8112 11.8074 22.8112 8.41054 20.8537 6.32512ZM13.0001 5.03299C15.5463 2.5781 19.4956 2.6582 21.9502 5.27331C24.4611 7.94834 24.4611 12.2696 21.9502 14.9447L15.7415 21.5593C14.2513 23.1469 11.7489 23.1469 10.2587 21.5593L4.04993 14.9447C1.53902 12.2696 1.53902 7.94834 4.04993 5.27331C6.50458 2.6582 10.4539 2.5781 13.0001 5.03299Z" fill="#B8B8B8"/>
</svg>
