<svg width="34" height="34" viewBox="0 0 34 34" fill="none" xmlns="http://www.w3.org/2000/svg">
<path fill-rule="evenodd" clip-rule="evenodd" d="M19.7833 5.88711C18.1513 4.59266 15.8485 4.59266 14.2166 5.88711L6.61493 11.9167C5.53594 12.7726 4.90642 14.0777 4.90642 15.4589V24.5706C4.90642 27.0631 6.9175 29.0837 9.39829 29.0837H11.4715C11.6623 29.0837 11.817 28.9283 11.817 28.7365V24.5706C11.817 22.4616 13.5187 20.7519 15.6178 20.7519H18.382C20.4812 20.7519 22.1828 22.4616 22.1828 24.5706V28.7365C22.1828 28.9283 22.3375 29.0837 22.5284 29.0837H24.6015C27.0823 29.0837 29.0934 27.0631 29.0934 24.5706V15.4589C29.0934 14.0777 28.4639 12.7726 27.3849 11.9167L19.7833 5.88711ZM12.9319 4.25223C15.3171 2.36034 18.6828 2.36034 21.0679 4.25223L28.6695 10.2818C30.2465 11.5327 31.1666 13.4403 31.1666 15.4589V24.5706C31.1666 28.2135 28.2273 31.1666 24.6015 31.1666H22.5284C21.1926 31.1666 20.1097 30.0786 20.1097 28.7365V24.5706C20.1097 23.612 19.3362 22.8348 18.382 22.8348H15.6178C14.6637 22.8348 13.8902 23.612 13.8902 24.5706V28.7365C13.8902 30.0786 12.8073 31.1666 11.4715 31.1666H9.39829C5.77252 31.1666 2.83325 28.2135 2.83325 24.5706V15.4589C2.83325 13.4403 3.75331 11.5327 5.3303 10.2818L12.9319 4.25223Z" fill="black"/>
</svg>
