<svg width="26" height="26" viewBox="0 0 26 26" fill="none" xmlns="http://www.w3.org/2000/svg">
<g clip-path="url(#clip0_3642_6797)">
<path d="M11.5833 2.93548V1.25806C11.5833 0.924405 11.7174 0.604411 11.9559 0.368479C12.1945 0.132546 12.518 0 12.8554 0C13.1928 0 13.5163 0.132546 13.7549 0.368479C13.9935 0.604411 14.1275 0.924405 14.1275 1.25806V2.93548C14.1275 3.26914 13.9935 3.58914 13.7549 3.82507C13.5163 4.061 13.1928 4.19355 12.8554 4.19355C12.518 4.19355 12.1945 4.061 11.9559 3.82507C11.7174 3.58914 11.5833 3.26914 11.5833 2.93548ZM20.0638 13C20.0638 14.41 19.641 15.7883 18.849 16.9607C18.0569 18.133 16.9311 19.0468 15.6139 19.5864C14.2968 20.1259 12.8474 20.2671 11.4491 19.9921C10.0508 19.717 8.76641 19.038 7.75829 18.041C6.75018 17.044 6.06365 15.7737 5.78551 14.3908C5.50737 13.0079 5.65012 11.5745 6.19571 10.2718C6.74129 8.96918 7.66521 7.85577 8.85063 7.07243C10.036 6.28908 11.4297 5.87097 12.8554 5.87097C14.7666 5.87291 16.5989 6.62463 17.9503 7.96116C19.3018 9.29769 20.0618 11.1099 20.0638 13ZM17.5197 13C17.5197 12.0877 17.2461 11.1958 16.7336 10.4372C16.2211 9.67862 15.4926 9.08737 14.6403 8.73823C13.7881 8.38909 12.8502 8.29774 11.9455 8.47573C11.0407 8.65372 10.2096 9.09306 9.55727 9.73818C8.90497 10.3833 8.46074 11.2053 8.28077 12.1001C8.10079 12.9949 8.19316 13.9224 8.54619 14.7653C8.89922 15.6082 9.49705 16.3286 10.2641 16.8355C11.0311 17.3424 11.9329 17.6129 12.8554 17.6129C14.092 17.6115 15.2776 17.1251 16.152 16.2603C17.0264 15.3955 17.5183 14.223 17.5197 13ZM4.74701 6.76105C4.86534 6.87807 5.00581 6.9709 5.16042 7.03424C5.31502 7.09757 5.48072 7.13017 5.64806 7.13017C5.8154 7.13017 5.9811 7.09757 6.13571 7.03424C6.29031 6.9709 6.43078 6.87807 6.54911 6.76105C6.66744 6.64402 6.7613 6.50509 6.82534 6.35219C6.88938 6.19929 6.92234 6.03542 6.92234 5.86992C6.92234 5.70442 6.88938 5.54054 6.82534 5.38764C6.7613 5.23474 6.66744 5.09582 6.54911 4.97879L5.27704 3.72073C5.03807 3.48438 4.71395 3.35161 4.37599 3.35161C4.03803 3.35161 3.71391 3.48438 3.47494 3.72073C3.23597 3.95707 3.10171 4.27762 3.10171 4.61186C3.10171 4.94609 3.23597 5.26664 3.47494 5.50298L4.74701 6.76105ZM4.74701 19.2369L3.47494 20.4949C3.35661 20.6119 3.26275 20.7509 3.19871 20.9038C3.13467 21.0567 3.10171 21.2206 3.10171 21.386C3.10171 21.5515 3.13467 21.7154 3.19871 21.8683C3.26275 22.0212 3.35661 22.1602 3.47494 22.2772C3.71391 22.5135 4.03803 22.6463 4.37599 22.6463C4.54333 22.6463 4.70903 22.6137 4.86363 22.5504C5.01824 22.487 5.15871 22.3942 5.27704 22.2772L6.54911 21.0191C6.78808 20.7828 6.92234 20.4622 6.92234 20.128C6.92234 19.7937 6.78808 19.4732 6.54911 19.2369C6.31014 19.0005 5.98602 18.8677 5.64806 18.8677C5.3101 18.8677 4.98598 19.0005 4.74701 19.2369ZM20.0638 7.12903C20.2309 7.12916 20.3964 7.09673 20.5508 7.03359C20.7052 6.97045 20.8456 6.87784 20.9638 6.76105L22.2359 5.50298C22.3542 5.38596 22.4481 5.24703 22.5121 5.09413C22.5761 4.94123 22.6091 4.77735 22.6091 4.61186C22.6091 4.44636 22.5761 4.28248 22.5121 4.12958C22.4481 3.97668 22.3542 3.83775 22.2359 3.72073C22.1175 3.6037 21.9771 3.51087 21.8225 3.44754C21.6679 3.38421 21.5022 3.35161 21.3348 3.35161C21.1675 3.35161 21.0018 3.38421 20.8472 3.44754C20.6926 3.51087 20.5521 3.6037 20.4338 3.72073L19.1617 4.97879C18.9827 5.15475 18.8607 5.37938 18.8112 5.62411C18.7617 5.86883 18.7869 6.1226 18.8836 6.35312C18.9803 6.58364 19.1442 6.78051 19.3543 6.91867C19.5645 7.05684 19.8114 7.13006 20.0638 7.12903ZM20.9638 19.239C20.7248 19.0026 20.4007 18.8698 20.0627 18.8698C19.7248 18.8698 19.4007 19.0026 19.1617 19.239C18.9227 19.4753 18.7885 19.7958 18.7885 20.1301C18.7885 20.4643 18.9227 20.7849 19.1617 21.0212L20.4338 22.2793C20.6727 22.5156 20.9969 22.6484 21.3348 22.6484C21.6728 22.6484 21.9969 22.5156 22.2359 22.2793C22.4748 22.0429 22.6091 21.7224 22.6091 21.3881C22.6091 21.0539 22.4748 20.7334 22.2359 20.497L20.9638 19.239ZM4.24024 13C4.24024 12.6663 4.10622 12.3463 3.86766 12.1104C3.6291 11.8745 3.30554 11.7419 2.96817 11.7419H1.27207C0.934697 11.7419 0.611141 11.8745 0.372581 12.1104C0.134021 12.3463 0 12.6663 0 13C0 13.3337 0.134021 13.6537 0.372581 13.8896C0.611141 14.1255 0.934697 14.2581 1.27207 14.2581H2.96817C3.30554 14.2581 3.6291 14.1255 3.86766 13.8896C4.10622 13.6537 4.24024 13.3337 4.24024 13ZM12.8554 21.8065C12.518 21.8065 12.1945 21.939 11.9559 22.1749C11.7174 22.4109 11.5833 22.7309 11.5833 23.0645V24.7419C11.5833 25.0756 11.7174 25.3956 11.9559 25.6315C12.1945 25.8675 12.518 26 12.8554 26C13.1928 26 13.5163 25.8675 13.7549 25.6315C13.9935 25.3956 14.1275 25.0756 14.1275 24.7419V23.0645C14.1275 22.7309 13.9935 22.4109 13.7549 22.1749C13.5163 21.939 13.1928 21.8065 12.8554 21.8065ZM24.7281 11.7419H23.032C22.6946 11.7419 22.371 11.8745 22.1325 12.1104C21.8939 12.3463 21.7599 12.6663 21.7599 13C21.7599 13.3337 21.8939 13.6537 22.1325 13.8896C22.371 14.1255 22.6946 14.2581 23.032 14.2581H24.7281C25.0654 14.2581 25.389 14.1255 25.6276 13.8896C25.8661 13.6537 26.0001 13.3337 26.0001 13C26.0001 12.6663 25.8661 12.3463 25.6276 12.1104C25.389 11.8745 25.0654 11.7419 24.7281 11.7419Z" fill="#3DABF7"/>
</g>
<defs>
<clipPath id="clip0_3642_6797">
<rect width="26" height="26" fill="white"/>
</clipPath>
</defs>
</svg>
