<svg width="24" height="24" viewBox="0 0 24 24" fill="none" xmlns="http://www.w3.org/2000/svg">
<path d="M2.57144 5.78571C2.57144 5.61521 2.63917 5.4517 2.75973 5.33114C2.88029 5.21058 3.0438 5.14285 3.2143 5.14285H19.0714C19.2419 5.14285 19.4055 5.21058 19.526 5.33114C19.6466 5.4517 19.7143 5.61521 19.7143 5.78571C19.7143 5.95621 19.6466 6.11972 19.526 6.24028C19.4055 6.36084 19.2419 6.42857 19.0714 6.42857H3.2143C3.0438 6.42857 2.88029 6.36084 2.75973 6.24028C2.63917 6.11972 2.57144 5.95621 2.57144 5.78571ZM2.57144 17.7857C2.57144 17.6152 2.63917 17.4517 2.75973 17.3311C2.88029 17.2106 3.0438 17.1429 3.2143 17.1429H17.3572C17.5277 17.1429 17.6912 17.2106 17.8117 17.3311C17.9323 17.4517 18 17.6152 18 17.7857C18 17.9562 17.9323 18.1197 17.8117 18.2403C17.6912 18.3608 17.5277 18.4286 17.3572 18.4286H3.2143C3.0438 18.4286 2.88029 18.3608 2.75973 18.2403C2.63917 18.1197 2.57144 17.9562 2.57144 17.7857ZM3.2143 11.1429C3.0438 11.1429 2.88029 11.2106 2.75973 11.3311C2.63917 11.4517 2.57144 11.6152 2.57144 11.7857C2.57144 11.9562 2.63917 12.1197 2.75973 12.2403C2.88029 12.3608 3.0438 12.4286 3.2143 12.4286H20.7857C20.9562 12.4286 21.1197 12.3608 21.2403 12.2403C21.3609 12.1197 21.4286 11.9562 21.4286 11.7857C21.4286 11.6152 21.3609 11.4517 21.2403 11.3311C21.1197 11.2106 20.9562 11.1429 20.7857 11.1429H3.2143Z" fill="black"/>
</svg>
