<svg width="27" height="27" viewBox="0 0 27 27" fill="none" xmlns="http://www.w3.org/2000/svg">
<path fill-rule="evenodd" clip-rule="evenodd" d="M7.74419 3.90258C5.04217 3.90258 2.85174 5.99891 2.85174 8.58487V22.8184C2.85174 23.0493 3.13088 23.1777 3.31932 23.0334L6.5742 20.5414C7.13552 20.1116 7.83296 19.8775 8.5518 19.8775H19.2558C21.9578 19.8775 24.1483 17.7811 24.1483 15.1952V8.58487C24.1483 5.99891 21.9578 3.90258 19.2558 3.90258H7.74419ZM1.125 8.58487C1.125 5.08622 4.08851 2.25 7.74419 2.25H19.2558C22.9115 2.25 25.875 5.08622 25.875 8.58487V15.1952C25.875 18.6938 22.9115 21.5301 19.2558 21.5301H8.5518C8.22505 21.5301 7.90804 21.6365 7.65289 21.8318L4.398 24.3239C3.07896 25.3338 1.125 24.435 1.125 22.8184V8.58487Z" fill="black"/>
<path d="M9.24068 11.9449C9.24068 12.7055 8.59644 13.322 7.80173 13.322C7.00702 13.322 6.36278 12.7055 6.36278 11.9449C6.36278 11.1843 7.00702 10.5678 7.80173 10.5678C8.59644 10.5678 9.24068 11.1843 9.24068 11.9449Z" fill="black"/>
<path d="M14.9965 11.9449C14.9965 12.7055 14.3523 13.322 13.5575 13.322C12.7628 13.322 12.1186 12.7055 12.1186 11.9449C12.1186 11.1843 12.7628 10.5678 13.5575 10.5678C14.3523 10.5678 14.9965 11.1843 14.9965 11.9449Z" fill="black"/>
<path d="M20.7523 11.9449C20.7523 12.7055 20.1081 13.322 19.3134 13.322C18.5186 13.322 17.8744 12.7055 17.8744 11.9449C17.8744 11.1843 18.5186 10.5678 19.3134 10.5678C20.1081 10.5678 20.7523 11.1843 20.7523 11.9449Z" fill="black"/>
</svg>
