<svg width="26" height="26" viewBox="0 0 26 26" fill="none" xmlns="http://www.w3.org/2000/svg">
<path fill-rule="evenodd" clip-rule="evenodd" d="M12.9998 3.67838C7.8516 3.67838 3.67813 7.85185 3.67813 13.0001C3.67813 14.5349 4.0485 15.9811 4.70407 17.2561C4.92486 17.6856 4.98451 18.2058 4.81131 18.696L3.87583 21.3434C3.74882 21.7028 4.09506 22.049 4.4545 21.922L6.99664 21.0237C7.50647 20.8436 8.04798 20.9153 8.48696 21.1587C9.82338 21.8996 11.3612 22.3218 12.9998 22.3218C18.1481 22.3218 22.3215 18.1483 22.3215 13.0001C22.3215 7.85185 18.1481 3.67838 12.9998 3.67838ZM2.1665 13.0001C2.1665 7.017 7.01675 2.16675 12.9998 2.16675C18.9829 2.16675 23.8332 7.017 23.8332 13.0001C23.8332 18.9832 18.9829 23.8334 12.9998 23.8334C11.0982 23.8334 9.30896 23.3428 7.75399 22.4807C7.65885 22.428 7.56627 22.4257 7.50027 22.449L4.95813 23.3473C3.40055 23.8977 1.90018 22.3973 2.45056 20.8397L3.38604 18.1923C3.40849 18.1288 3.40745 18.0402 3.35972 17.9473C2.59679 16.4635 2.1665 14.7809 2.1665 13.0001Z" fill="#B8B8B8"/>
<path d="M9.27114 13.0503C9.27114 13.746 8.70716 14.31 8.01145 14.31C7.31575 14.31 6.75176 13.746 6.75176 13.0503C6.75176 12.3546 7.31575 11.7906 8.01145 11.7906C8.70716 11.7906 9.27114 12.3546 9.27114 13.0503Z" fill="#B8B8B8"/>
<path d="M14.3099 13.0503C14.3099 13.746 13.7459 14.31 13.0502 14.31C12.3545 14.31 11.7905 13.746 11.7905 13.0503C11.7905 12.3546 12.3545 11.7906 13.0502 11.7906C13.7459 11.7906 14.3099 12.3546 14.3099 13.0503Z" fill="#B8B8B8"/>
<path d="M19.3487 13.0503C19.3487 13.746 18.7847 14.31 18.089 14.31C17.3933 14.31 16.8293 13.746 16.8293 13.0503C16.8293 12.3546 17.3933 11.7906 18.089 11.7906C18.7847 11.7906 19.3487 12.3546 19.3487 13.0503Z" fill="#B8B8B8"/>
</svg>
