<svg width="34" height="34" viewBox="0 0 34 34" fill="none" xmlns="http://www.w3.org/2000/svg">
<path fill-rule="evenodd" clip-rule="evenodd" d="M16.9999 4.81012C10.2676 4.81012 4.81 10.2677 4.81 17C4.81 23.7323 10.2676 29.19 16.9999 29.19C23.7322 29.19 29.1898 23.7323 29.1898 17C29.1898 10.2677 23.7322 4.81012 16.9999 4.81012ZM2.83325 17C2.83325 9.17601 9.17588 2.83337 16.9999 2.83337C24.824 2.83337 31.1666 9.17601 31.1666 17C31.1666 24.8241 24.824 31.1667 16.9999 31.1667C9.17588 31.1667 2.83325 24.8241 2.83325 17ZM16.9999 10.7404C17.5458 10.7404 17.9883 11.1829 17.9883 11.7287V16.4711L21.5017 18.8133C21.9558 19.1161 22.0786 19.7298 21.7758 20.1839C21.473 20.6381 20.8593 20.7609 20.4052 20.4581L16.7451 18.018C16.2868 17.7125 16.0115 17.1982 16.0115 16.6474V11.7287C16.0115 11.1829 16.4541 10.7404 16.9999 10.7404Z" fill="black"/>
</svg>
