<svg width="79" height="22" viewBox="0 0 79 22" fill="none" xmlns="http://www.w3.org/2000/svg">
<path d="M0.541193 21V0.636363H5.46307V17.0028H13.9347V21H0.541193ZM34.9098 10.8182C34.9098 13.0587 34.4789 14.9579 33.6172 16.5156C32.7554 18.0734 31.5888 19.2566 30.1172 20.0653C28.6522 20.8741 27.0083 21.2784 25.1854 21.2784C23.3558 21.2784 21.7086 20.8707 20.2436 20.0554C18.7786 19.2401 17.6153 18.0568 16.7536 16.5057C15.8984 14.9479 15.4709 13.0521 15.4709 10.8182C15.4709 8.57765 15.8984 6.6785 16.7536 5.12074C17.6153 3.56297 18.7786 2.37973 20.2436 1.57102C21.7086 0.76231 23.3558 0.357954 25.1854 0.357954C27.0083 0.357954 28.6522 0.76231 30.1172 1.57102C31.5888 2.37973 32.7554 3.56297 33.6172 5.12074C34.4789 6.6785 34.9098 8.57765 34.9098 10.8182ZM29.8786 10.8182C29.8786 9.49242 29.6896 8.37216 29.3118 7.45739C28.9406 6.54261 28.4036 5.8499 27.701 5.37926C27.005 4.90862 26.1664 4.67329 25.1854 4.67329C24.2109 4.67329 23.3724 4.90862 22.6697 5.37926C21.9671 5.8499 21.4268 6.54261 21.049 7.45739C20.6778 8.37216 20.4922 9.49242 20.4922 10.8182C20.4922 12.1439 20.6778 13.2642 21.049 14.179C21.4268 15.0937 21.9671 15.7865 22.6697 16.2571C23.3724 16.7277 24.2109 16.9631 25.1854 16.9631C26.1664 16.9631 27.005 16.7277 27.701 16.2571C28.4036 15.7865 28.9406 15.0937 29.3118 14.179C29.6896 13.2642 29.8786 12.1439 29.8786 10.8182ZM51.147 7.28835C51.0343 6.87074 50.8686 6.50284 50.6499 6.18466C50.4311 5.85985 50.1626 5.58475 49.8445 5.35938C49.5263 5.134 49.1617 4.96496 48.7507 4.85227C48.3397 4.73295 47.889 4.67329 47.3984 4.67329C46.4107 4.67329 45.5556 4.91193 44.8331 5.3892C44.1172 5.86648 43.5637 6.5625 43.1726 7.47727C42.7815 8.38542 42.5859 9.48911 42.5859 10.7884C42.5859 12.0942 42.7749 13.2079 43.1527 14.1293C43.5305 15.0507 44.0774 15.7533 44.7933 16.2372C45.5092 16.7211 46.3776 16.9631 47.3984 16.9631C48.3 16.9631 49.0623 16.8172 49.6854 16.5256C50.3151 16.2273 50.7924 15.8063 51.1172 15.2628C51.442 14.7192 51.6044 14.0795 51.6044 13.3438L52.5192 13.4531H47.5675V9.86364H56.3473V12.5582C56.3473 14.3812 55.9595 15.9422 55.1839 17.2415C54.415 18.5407 53.3544 19.5384 52.0021 20.2344C50.6565 20.9304 49.1087 21.2784 47.3587 21.2784C45.4164 21.2784 43.7095 20.8575 42.2379 20.0156C40.7663 19.1738 39.6196 17.974 38.7976 16.4162C37.9756 14.8518 37.5646 12.9957 37.5646 10.848C37.5646 9.17756 37.8132 7.69602 38.3104 6.40341C38.8075 5.10417 39.5002 4.00379 40.3885 3.10227C41.2834 2.20076 42.3175 1.51799 43.4908 1.05398C44.6707 0.589961 45.9401 0.357954 47.299 0.357954C48.4789 0.357954 49.576 0.526988 50.5902 0.865057C51.611 1.20312 52.5125 1.6804 53.2947 2.29688C54.0836 2.91335 54.7232 3.64583 55.2138 4.49432C55.7043 5.3428 56.0092 6.27415 56.1286 7.28835H51.147ZM78.4684 10.8182C78.4684 13.0587 78.0375 14.9579 77.1758 16.5156C76.314 18.0734 75.1474 19.2566 73.6758 20.0653C72.2108 20.8741 70.5669 21.2784 68.744 21.2784C66.9144 21.2784 65.2672 20.8707 63.8022 20.0554C62.3372 19.2401 61.1739 18.0568 60.3121 16.5057C59.457 14.9479 59.0295 13.0521 59.0295 10.8182C59.0295 8.57765 59.457 6.6785 60.3121 5.12074C61.1739 3.56297 62.3372 2.37973 63.8022 1.57102C65.2672 0.76231 66.9144 0.357954 68.744 0.357954C70.5669 0.357954 72.2108 0.76231 73.6758 1.57102C75.1474 2.37973 76.314 3.56297 77.1758 5.12074C78.0375 6.6785 78.4684 8.57765 78.4684 10.8182ZM73.4371 10.8182C73.4371 9.49242 73.2482 8.37216 72.8704 7.45739C72.4992 6.54261 71.9622 5.8499 71.2596 5.37926C70.5636 4.90862 69.725 4.67329 68.744 4.67329C67.7695 4.67329 66.931 4.90862 66.2283 5.37926C65.5257 5.8499 64.9854 6.54261 64.6076 7.45739C64.2364 8.37216 64.0508 9.49242 64.0508 10.8182C64.0508 12.1439 64.2364 13.2642 64.6076 14.179C64.9854 15.0937 65.5257 15.7865 66.2283 16.2571C66.931 16.7277 67.7695 16.9631 68.744 16.9631C69.725 16.9631 70.5636 16.7277 71.2596 16.2571C71.9622 15.7865 72.4992 15.0937 72.8704 14.179C73.2482 13.2642 73.4371 12.1439 73.4371 10.8182Z" fill="black"/>
</svg>
